<?xml version="1.0" standalone="no"?>
<!DOCTYPE svg PUBLIC "-//W3C//DTD SVG 20010904//EN"
 "http://www.w3.org/TR/2001/REC-SVG-20010904/DTD/svg10.dtd">
<svg version="1.0" xmlns="http://www.w3.org/2000/svg"
 width="64.000000pt" height="64.000000pt" viewBox="0 0 64.000000 64.000000"
 preserveAspectRatio="xMidYMid meet">

<g transform="translate(0.000000,64.000000) scale(0.100000,-0.100000)"
fill="#000000" stroke="none">
<path d="M193 546 c-10 -13 -23 -32 -30 -42 -12 -18 -13 -18 -23 -1 -19 30
-68 22 -106 -19 l-34 -35 0 -173 c0 -155 2 -175 18 -189 20 -19 62 -23 62 -7
0 6 -8 10 -18 10 -38 0 -42 18 -42 190 0 116 4 170 12 178 7 7 37 12 68 12 64
0 72 4 94 48 l17 32 104 0 c81 0 107 -3 119 -16 9 -8 16 -19 16 -24 0 -25 34
-40 89 -40 31 0 62 -5 69 -12 17 -17 17 -339 0 -356 -9 -9 -79 -12 -255 -12
-155 0 -243 -4 -243 -10 0 -6 89 -10 248 -10 228 0 250 2 265 18 14 16 17 45
17 190 0 207 -3 212 -98 212 -57 0 -59 1 -83 38 l-24 37 -112 3 c-107 3 -112
2 -130 -22z m-80 -53 c-7 -2 -21 -2 -30 0 -10 3 -4 5 12 5 17 0 24 -2 18 -5z"/>
<path d="M270 510 c0 -5 23 -10 50 -10 28 0 50 5 50 10 0 6 -22 10 -50 10 -27
0 -50 -4 -50 -10z"/>
<path d="M46 425 c-7 -19 20 -46 39 -39 8 4 15 17 15 30 0 19 -5 24 -24 24
-13 0 -26 -7 -30 -15z m38 -16 c-3 -5 -10 -7 -15 -3 -5 3 -7 10 -3 15 3 5 10
7 15 3 5 -3 7 -10 3 -15z"/>
<path d="M244 421 c-97 -59 -110 -173 -29 -251 30 -29 43 -34 92 -38 48 -3 64
0 92 20 57 38 76 73 76 133 0 60 -20 95 -75 133 -42 28 -112 30 -156 3z m148
-18 c85 -42 87 -183 4 -234 -18 -11 -50 -19 -76 -19 -104 0 -167 96 -127 193
17 39 36 55 84 72 40 14 70 11 115 -12z"/>
<path d="M275 391 c-104 -43 -81 -204 32 -217 44 -5 78 10 106 47 21 30 26 95
7 112 -10 10 -11 5 -6 -22 11 -61 -35 -121 -94 -121 -63 0 -110 65 -90 126 19
57 82 79 142 48 23 -12 29 -13 26 -2 -10 31 -79 47 -123 29z"/>
<path d="M555 430 c-3 -5 3 -10 15 -10 12 0 18 5 15 10 -3 6 -10 10 -15 10 -5
0 -12 -4 -15 -10z"/>
</g>
</svg>
