<?xml version="1.0" standalone="no"?>
<!DOCTYPE svg PUBLIC "-//W3C//DTD SVG 20010904//EN"
 "http://www.w3.org/TR/2001/REC-SVG-20010904/DTD/svg10.dtd">
<svg version="1.0" xmlns="http://www.w3.org/2000/svg"
 width="128.000000pt" height="128.000000pt" viewBox="0 0 128.000000 128.000000"
 preserveAspectRatio="xMidYMid meet">

<g transform="translate(0.000000,128.000000) scale(0.100000,-0.100000)"
fill="#000000" stroke="none">
<path d="M535 1144 c-287 -166 -366 -216 -375 -240 -6 -14 -10 -138 -10 -276
l0 -250 29 -26 c40 -37 184 -113 197 -104 16 10 214 395 214 415 0 10 -9 26
-20 37 -17 17 -33 20 -111 20 -87 0 -92 1 -120 29 -36 37 -38 79 -5 118 l24
28 368 3 c203 1 372 6 376 10 5 5 2 15 -4 24 -22 27 -431 258 -458 258 -14 0
-61 -21 -105 -46z"/>
<path d="M925 715 c-5 -2 -22 -6 -37 -9 -15 -4 -43 -20 -63 -37 -37 -32 -58
-70 -204 -351 l-92 -177 44 -25 c24 -14 55 -26 68 -26 38 0 448 240 470 275
21 33 25 132 13 278 l-7 77 -91 -1 c-50 0 -95 -2 -101 -4z"/>
</g>
</svg>
