<?xml version="1.0" standalone="no"?>
<!DOCTYPE svg PUBLIC "-//W3C//DTD SVG 20010904//EN"
 "http://www.w3.org/TR/2001/REC-SVG-20010904/DTD/svg10.dtd">
<svg version="1.0" xmlns="http://www.w3.org/2000/svg"
 width="64.000000pt" height="64.000000pt" viewBox="0 0 64.000000 64.000000"
 preserveAspectRatio="xMidYMid meet">

<g transform="translate(0.000000,64.000000) scale(0.100000,-0.100000)"
fill="#000000" stroke="none">
<path d="M135 617 c-5 -19 -15 -26 -44 -31 -21 -3 -48 -17 -62 -32 l-24 -26 0
-234 0 -234 28 -27 c26 -27 32 -28 143 -31 121 -4 157 5 133 34 -8 10 -40 14
-119 14 -148 0 -140 -15 -140 247 0 191 2 211 18 226 28 26 59 21 66 -9 8 -31
40 -29 44 4 3 20 9 22 55 22 45 0 54 -3 62 -22 6 -13 17 -23 25 -23 8 0 16 10
18 23 3 20 9 22 62 22 53 0 59 -2 62 -22 2 -13 10 -23 18 -23 8 0 19 10 25 23
12 27 46 29 68 4 13 -14 17 -38 17 -99 0 -56 4 -84 14 -92 27 -23 38 12 35
108 -4 78 -7 93 -28 115 -14 15 -41 29 -61 32 -24 4 -39 13 -46 27 -12 29 -38
28 -42 0 -3 -21 -9 -23 -62 -23 -53 0 -59 2 -62 23 -2 12 -10 22 -18 22 -8 0
-19 -10 -25 -22 -8 -20 -17 -23 -62 -23 -46 0 -52 2 -55 22 -4 32 -36 36 -43
5z"/>
<path d="M134 389 c-3 -6 0 -17 7 -25 18 -17 44 -2 36 20 -7 18 -33 21 -43 5z"/>
<path d="M244 389 c-3 -6 0 -17 8 -25 13 -13 16 -13 27 0 7 8 10 20 6 26 -8
13 -32 13 -41 -1z"/>
<path d="M353 384 c-8 -22 18 -37 36 -20 7 8 10 19 7 25 -10 16 -36 13 -43 -5z"/>
<path d="M463 384 c-7 -20 17 -37 34 -23 15 13 6 39 -13 39 -8 0 -17 -7 -21
-16z"/>
<path d="M412 280 c-122 -75 -80 -261 63 -278 89 -10 173 74 163 163 -13 108
-134 171 -226 115z m127 -45 c77 -39 56 -161 -31 -180 -95 -21 -156 95 -87
164 34 35 73 40 118 16z"/>
<path d="M471 217 c-12 -12 -15 -46 -5 -71 7 -19 69 -22 80 -4 4 6 -2 19 -14
29 -12 9 -22 24 -22 32 0 20 -25 28 -39 14z"/>
<path d="M134 279 c-3 -6 0 -17 7 -25 18 -17 44 -2 36 20 -7 18 -33 21 -43 5z"/>
<path d="M244 279 c-3 -6 0 -17 8 -25 13 -13 16 -13 27 0 7 8 10 20 6 26 -8
13 -32 13 -41 -1z"/>
<path d="M135 170 c-4 -7 -3 -16 3 -22 14 -14 45 -2 40 15 -6 16 -34 21 -43 7z"/>
<path d="M245 170 c-4 -7 -3 -16 3 -22 14 -14 45 -2 40 15 -6 16 -34 21 -43 7z"/>
</g>
</svg>
