<?xml version="1.0" standalone="no"?>
<!DOCTYPE svg PUBLIC "-//W3C//DTD SVG 20010904//EN"
 "http://www.w3.org/TR/2001/REC-SVG-20010904/DTD/svg10.dtd">
<svg version="1.0" xmlns="http://www.w3.org/2000/svg"
 width="64.000000pt" height="64.000000pt" viewBox="0 0 64.000000 64.000000"
 preserveAspectRatio="xMidYMid meet">

<g transform="translate(0.000000,64.000000) scale(0.100000,-0.100000)"
fill="#000000" stroke="none">
<path d="M57 591 c-50 -48 -52 -52 -52 -104 0 -43 8 -70 42 -138 92 -186 287
-339 436 -343 58 -1 59 -1 108 51 27 28 49 61 49 73 0 24 -81 115 -122 136
-32 17 -54 9 -100 -34 l-27 -25 -54 41 c-30 22 -71 64 -92 92 l-38 51 25 27
c38 41 49 67 39 94 -13 34 -116 128 -141 128 -12 0 -44 -22 -73 -49z m130 -33
c29 -29 53 -60 53 -68 0 -9 -13 -29 -30 -45 -37 -36 -38 -61 -2 -111 34 -47
125 -130 164 -150 26 -14 29 -13 67 21 21 19 45 35 53 35 8 0 38 -25 67 -55
56 -59 57 -68 9 -111 -39 -36 -66 -45 -106 -38 -55 10 -154 62 -222 116 -131
106 -233 305 -194 379 13 25 69 79 82 79 3 0 30 -23 59 -52z"/>
</g>
</svg>
