<?xml version="1.0" standalone="no"?>
<!DOCTYPE svg PUBLIC "-//W3C//DTD SVG 20010904//EN"
 "http://www.w3.org/TR/2001/REC-SVG-20010904/DTD/svg10.dtd">
<svg version="1.0" xmlns="http://www.w3.org/2000/svg"
 width="64.000000pt" height="64.000000pt" viewBox="0 0 64.000000 64.000000"
 preserveAspectRatio="xMidYMid meet">

<g transform="translate(0.000000,64.000000) scale(0.100000,-0.100000)"
fill="#000000" stroke="none">
<path d="M150 473 l-1 -168 -31 -20 c-43 -27 -55 -67 -34 -112 10 -21 16 -60
16 -103 0 -74 8 -84 42 -53 17 15 19 15 36 0 28 -25 42 -21 42 13 l0 30 173 2
172 3 3 234 2 235 -52 53 -52 53 -158 0 -158 0 0 -167z m302 100 l3 -48 48 -3
47 -3 0 -220 0 -219 -165 0 -165 0 0 30 c0 16 7 45 16 63 21 45 9 85 -34 112
l-31 20 -1 158 0 157 139 0 140 0 3 -47z m58 2 l34 -35 -37 0 c-36 0 -37 1
-37 35 0 19 1 35 3 35 2 0 18 -16 37 -35z m-296 -317 c22 -31 20 -68 -6 -95
-60 -64 -153 22 -102 95 21 31 87 31 108 0z m-14 -185 c0 -55 0 -56 -20 -38
-19 17 -21 17 -40 0 -20 -18 -20 -17 -20 38 l0 57 40 0 40 0 0 -57z"/>
<path d="M220 550 c0 -6 27 -10 60 -10 33 0 60 4 60 10 0 6 -27 10 -60 10 -33
0 -60 -4 -60 -10z"/>
<path d="M220 510 c0 -5 18 -10 40 -10 22 0 40 5 40 10 0 6 -18 10 -40 10 -22
0 -40 -4 -40 -10z"/>
<path d="M220 450 c0 -6 53 -10 140 -10 87 0 140 4 140 10 0 6 -53 10 -140 10
-87 0 -140 -4 -140 -10z"/>
<path d="M220 410 c0 -6 53 -10 140 -10 87 0 140 4 140 10 0 6 -53 10 -140 10
-87 0 -140 -4 -140 -10z"/>
<path d="M220 370 c0 -6 53 -10 140 -10 87 0 140 4 140 10 0 6 -53 10 -140 10
-87 0 -140 -4 -140 -10z"/>
<path d="M220 330 c0 -6 53 -10 140 -10 87 0 140 4 140 10 0 6 -53 10 -140 10
-87 0 -140 -4 -140 -10z"/>
<path d="M260 290 c0 -6 40 -10 100 -10 60 0 100 4 100 10 0 6 -40 10 -100 10
-60 0 -100 -4 -100 -10z"/>
<path d="M380 230 c0 -6 27 -10 60 -10 33 0 60 4 60 10 0 6 -27 10 -60 10 -33
0 -60 -4 -60 -10z"/>
<path d="M420 190 c0 -5 18 -10 40 -10 22 0 40 5 40 10 0 6 -18 10 -40 10 -22
0 -40 -4 -40 -10z"/>
<path d="M125 240 c-27 -30 -7 -70 35 -70 42 0 62 40 35 70 -10 11 -26 20 -35
20 -9 0 -25 -9 -35 -20z m60 -30 c0 -18 -6 -26 -23 -28 -24 -4 -38 18 -28 44
3 9 15 14 28 12 17 -2 23 -10 23 -28z"/>
</g>
</svg>
