<?xml version="1.0" standalone="no"?>
<!DOCTYPE svg PUBLIC "-//W3C//DTD SVG 20010904//EN"
 "http://www.w3.org/TR/2001/REC-SVG-20010904/DTD/svg10.dtd">
<svg version="1.0" xmlns="http://www.w3.org/2000/svg"
 width="64.000000pt" height="64.000000pt" viewBox="0 0 64.000000 64.000000"
 preserveAspectRatio="xMidYMid meet">

<g transform="translate(0.000000,64.000000) scale(0.100000,-0.100000)"
fill="#000000" stroke="none">
<path d="M235 624 c-75 -39 -99 -87 -99 -204 -1 -110 6 -127 57 -141 23 -7 46
-16 51 -20 5 -4 -25 -18 -65 -30 -77 -23 -129 -62 -129 -96 0 -13 8 -8 31 19
19 24 45 42 71 50 40 12 42 11 67 -19 25 -30 28 -31 102 -29 71 1 78 3 101 31
24 28 27 29 66 17 61 -19 92 -61 92 -128 0 -51 -1 -54 -25 -54 -23 0 -25 4
-25 45 0 25 -4 45 -10 45 -5 0 -10 -20 -10 -45 l0 -45 -190 0 -190 0 0 45 c0
25 -4 45 -10 45 -5 0 -10 -20 -10 -45 0 -41 -2 -45 -25 -45 -22 0 -25 4 -25
34 0 19 -5 38 -11 41 -7 5 -9 -9 -7 -42 l3 -48 275 0 275 0 3 57 c3 63 -14
108 -51 132 -12 9 -53 25 -90 36 -72 22 -78 34 -22 44 20 4 41 16 49 29 22 33
30 136 15 172 -12 28 -13 29 -16 8 -6 -30 -18 -29 -49 2 l-25 26 -67 -33 c-50
-25 -79 -33 -121 -33 l-56 0 -3 41 c-5 72 65 134 153 134 56 0 122 -31 137
-65 6 -14 15 -25 20 -25 35 0 -43 87 -90 100 -53 14 -112 12 -147 -6z m215
-206 c0 -32 -17 -80 -32 -89 -6 -4 -21 -4 -32 1 -32 12 -69 -6 -63 -30 13 -51
-96 1 -119 56 -23 54 -19 61 35 67 27 3 76 19 108 35 l58 30 22 -22 c13 -11
23 -33 23 -48z m40 -3 c0 -14 -4 -25 -10 -25 -5 0 -10 11 -10 25 0 14 5 25 10
25 6 0 10 -11 10 -25z m-320 -5 c0 -11 -4 -20 -10 -20 -5 0 -10 9 -10 20 0 11
5 20 10 20 6 0 10 -9 10 -20z m27 -80 c12 -22 20 -40 18 -40 -2 0 -15 4 -29
10 -20 7 -26 16 -26 40 0 41 11 38 37 -10z m264 -20 c-22 -19 -41 -26 -41 -15
0 5 51 34 60 34 3 0 -6 -9 -19 -19z m-81 0 c0 -5 -10 -10 -22 -10 -19 0 -20 2
-8 10 19 13 30 13 30 0z m-10 -63 c0 -8 -11 -24 -25 -37 l-25 -23 -25 23 c-39
37 -32 50 25 50 35 0 50 -4 50 -13z m-96 -46 c26 -27 26 -29 7 -34 -23 -6 -67
35 -56 52 10 17 19 13 49 -18z m141 18 c11 -16 -25 -49 -53 -49 l-26 0 29 30
c31 32 40 36 50 19z"/>
<path d="M157 113 c-4 -3 -7 -17 -7 -29 0 -26 29 -38 71 -32 19 2 25 10 27 36
3 32 3 32 -41 32 -24 0 -47 -3 -50 -7z m81 -25 c-7 -20 -68 -23 -68 -4 0 12
10 16 36 16 24 0 34 -4 32 -12z"/>
</g>
</svg>
