<?xml version="1.0" standalone="no"?>
<!DOCTYPE svg PUBLIC "-//W3C//DTD SVG 20010904//EN"
 "http://www.w3.org/TR/2001/REC-SVG-20010904/DTD/svg10.dtd">
<svg version="1.0" xmlns="http://www.w3.org/2000/svg"
 width="64.000000pt" height="64.000000pt" viewBox="0 0 64.000000 64.000000"
 preserveAspectRatio="xMidYMid meet">

<g transform="translate(0.000000,64.000000) scale(0.100000,-0.100000)"
fill="#000000" stroke="none">
<path d="M153 518 c-159 -68 -176 -84 -128 -125 27 -24 27 -25 21 -111 -3 -48
-9 -117 -12 -155 l-6 -67 37 0 38 0 -7 77 c-3 42 -11 82 -16 87 -14 14 -13
136 1 136 34 0 49 -22 49 -71 0 -57 25 -89 88 -111 47 -16 157 -16 204 0 63
22 88 54 88 112 l0 51 54 25 c116 53 105 74 -79 153 -79 33 -154 61 -167 61
-13 -1 -87 -28 -165 -62z m327 -17 c96 -42 135 -64 135 -76 0 -12 -40 -33
-138 -76 -77 -32 -147 -59 -157 -59 -10 0 -65 20 -121 44 -85 37 -99 45 -79
50 81 18 145 24 189 19 42 -5 52 -3 57 11 4 10 2 22 -4 28 -14 14 -69 13 -86
-1 -8 -6 -58 -19 -113 -29 -104 -19 -147 -14 -141 16 4 17 263 132 298 132 14
0 86 -27 160 -59z m-140 -71 c11 -7 6 -10 -20 -10 -26 0 -31 3 -20 10 8 5 17
10 20 10 3 0 12 -5 20 -10z m-107 -130 c42 -16 81 -30 87 -30 6 0 45 14 87 30
41 17 76 30 79 30 2 0 4 -11 4 -24 0 -16 -11 -32 -32 -47 -18 -13 -26 -25 -19
-27 6 -2 19 2 28 10 14 11 16 11 12 -1 -3 -8 -23 -24 -45 -35 -81 -43 -245
-20 -276 38 -10 20 -10 20 8 5 10 -8 31 -20 46 -26 38 -17 144 -27 151 -16 4
6 -21 13 -59 16 -84 8 -148 41 -152 80 -2 15 -1 27 2 27 2 0 38 -13 79 -30z
m-153 -181 c0 -31 -4 -39 -18 -39 -15 0 -18 6 -15 33 6 47 12 59 23 52 5 -3
10 -24 10 -46z"/>
<path d="M390 220 c0 -5 4 -10 9 -10 6 0 13 5 16 10 3 6 -1 10 -9 10 -9 0 -16
-4 -16 -10z"/>
</g>
</svg>
