<?xml version="1.0" standalone="no"?>
<!DOCTYPE svg PUBLIC "-//W3C//DTD SVG 20010904//EN"
 "http://www.w3.org/TR/2001/REC-SVG-20010904/DTD/svg10.dtd">
<svg version="1.0" xmlns="http://www.w3.org/2000/svg"
 width="64.000000pt" height="64.000000pt" viewBox="0 0 64.000000 64.000000"
 preserveAspectRatio="xMidYMid meet">

<g transform="translate(0.000000,64.000000) scale(0.100000,-0.100000)"
fill="#000000" stroke="none">
<path d="M219 612 c-78 -40 -112 -94 -117 -180 -3 -52 1 -81 19 -127 27 -72
178 -300 199 -300 21 0 172 228 199 300 18 46 22 75 19 127 -5 86 -39 140
-117 180 -71 37 -131 37 -202 0z m174 -26 c44 -18 94 -77 107 -126 20 -76 -7
-154 -107 -303 -36 -53 -69 -97 -73 -97 -4 0 -37 44 -73 98 -100 148 -127 226
-107 302 13 48 63 108 105 126 39 17 107 17 148 0z"/>
<path d="M273 515 c-17 -7 -39 -27 -47 -44 -49 -93 32 -193 130 -161 92 31 98
169 9 206 -42 17 -51 17 -92 -1z m95 -45 c47 -44 15 -130 -48 -130 -38 0 -70
34 -70 75 0 41 32 75 70 75 14 0 36 -9 48 -20z"/>
</g>
</svg>
