<?xml version="1.0" standalone="no"?>
<!DOCTYPE svg PUBLIC "-//W3C//DTD SVG 20010904//EN"
 "http://www.w3.org/TR/2001/REC-SVG-20010904/DTD/svg10.dtd">
<svg version="1.0" xmlns="http://www.w3.org/2000/svg"
 width="64.000000pt" height="64.000000pt" viewBox="0 0 64.000000 64.000000"
 preserveAspectRatio="xMidYMid meet">

<g transform="translate(0.000000,64.000000) scale(0.100000,-0.100000)"
fill="#000000" stroke="none">
<path d="M17 542 c-15 -16 -17 -47 -17 -224 0 -186 2 -206 18 -221 16 -15 52
-17 304 -17 263 0 286 1 301 18 15 16 17 47 17 224 0 186 -2 206 -18 221 -16
15 -52 17 -304 17 -263 0 -286 -1 -301 -18z m458 -117 c-60 -57 -120 -109
-132 -116 -32 -17 -48 -7 -178 116 l-110 104 265 0 265 0 -110 -104z m-299
-47 l61 -57 -51 -48 c-28 -26 -75 -70 -104 -98 l-52 -49 0 194 0 194 43 -40
c23 -22 69 -65 103 -96z m432 -152 l-3 -94 -102 94 -102 95 102 94 102 93 3
-94 c1 -52 1 -136 0 -188z m-328 59 c16 -20 59 -19 81 1 17 16 23 12 96 -54
43 -38 89 -82 102 -96 l24 -26 -264 0 -264 1 100 94 c55 52 103 95 106 95 4 0
12 -7 19 -15z"/>
</g>
</svg>
