<?xml version="1.0" standalone="no"?>
<!DOCTYPE svg PUBLIC "-//W3C//DTD SVG 20010904//EN"
 "http://www.w3.org/TR/2001/REC-SVG-20010904/DTD/svg10.dtd">
<svg version="1.0" xmlns="http://www.w3.org/2000/svg"
 width="128.000000pt" height="128.000000pt" viewBox="0 0 128.000000 128.000000"
 preserveAspectRatio="xMidYMid meet">

<g transform="translate(0.000000,128.000000) scale(0.100000,-0.100000)"
fill="#000000" stroke="none">
<path d="M16 1084 c-20 -20 -20 -48 0 -68 14 -14 84 -16 624 -16 540 0 610 2
624 16 20 20 20 48 0 68 -14 14 -84 16 -624 16 -540 0 -610 -2 -624 -16z"/>
<path d="M10 671 c-14 -27 -13 -47 6 -65 14 -14 84 -16 624 -16 540 0 610 2
624 16 19 18 20 38 6 65 -10 18 -28 19 -630 19 -602 0 -620 -1 -630 -19z"/>
<path d="M33 280 c-31 -13 -40 -55 -18 -80 18 -19 35 -20 625 -20 590 0 607 1
625 20 23 26 13 68 -21 80 -32 13 -1181 12 -1211 0z"/>
</g>
</svg>
