<?xml version="1.0" standalone="no"?>
<!DOCTYPE svg PUBLIC "-//W3C//DTD SVG 20010904//EN"
 "http://www.w3.org/TR/2001/REC-SVG-20010904/DTD/svg10.dtd">
<svg version="1.0" xmlns="http://www.w3.org/2000/svg"
 width="64.000000pt" height="64.000000pt" viewBox="0 0 64.000000 64.000000"
 preserveAspectRatio="xMidYMid meet">

<g transform="translate(0.000000,64.000000) scale(0.100000,-0.100000)"
fill="#000000" stroke="none">
<path d="M192 628 c-18 -18 -15 -85 4 -92 9 -3 47 -6 85 -6 58 0 71 3 81 20
10 15 24 20 60 20 26 0 50 -4 53 -10 4 -6 -8 -10 -29 -10 -47 0 -101 -47 -110
-95 -13 -68 35 -131 106 -139 l33 -3 0 -144 0 -144 -202 -3 -203 -2 0 275 0
275 40 0 c22 0 40 5 40 10 0 14 -74 12 -88 -2 -19 -19 -17 -551 2 -567 9 -8
75 -11 217 -9 l204 3 5 156 5 156 32 27 c17 15 35 40 38 57 10 46 -2 47 -20 1
-41 -101 -176 -84 -192 23 l-6 40 37 -42 c23 -26 46 -43 60 -43 22 0 146 115
146 137 0 6 -7 16 -16 24 -12 10 -20 10 -35 1 -24 -15 -37 -8 -49 24 -8 21
-16 24 -63 24 -48 0 -55 3 -65 25 -11 23 -16 25 -85 25 -43 0 -78 -5 -85 -12z
m156 -45 l3 -33 -75 0 -76 0 0 28 c0 16 3 32 7 36 4 4 37 6 73 4 l65 -3 3 -32z
m147 -59 c14 -6 11 -12 -16 -40 l-33 -34 -23 22 c-20 19 -27 20 -44 10 -18
-12 -19 -11 -9 7 5 11 18 25 28 30 19 12 72 14 97 5z m75 -2 c0 -11 -114 -122
-126 -122 -15 0 -69 59 -61 67 4 3 17 -3 30 -15 13 -12 28 -22 33 -22 5 0 32
23 59 50 47 48 65 59 65 42z"/>
<path d="M105 490 c3 -5 22 -10 41 -10 19 0 34 5 34 10 0 6 -18 10 -41 10 -24
0 -38 -4 -34 -10z"/>
<path d="M101 392 c-13 -25 5 -52 34 -52 15 0 26 7 30 20 13 41 -44 70 -64 32z
m49 -17 c0 -8 -6 -15 -14 -15 -17 0 -28 14 -19 24 12 12 33 6 33 -9z"/>
<path d="M217 393 c18 -2 50 -2 70 0 21 2 7 4 -32 4 -38 0 -55 -2 -38 -4z"/>
<path d="M190 350 c0 -6 26 -10 59 -10 33 0 63 5 66 10 4 6 -18 10 -59 10 -37
0 -66 -4 -66 -10z"/>
<path d="M106 279 c-17 -25 -12 -46 15 -54 42 -14 68 44 30 65 -26 14 -28 13
-45 -11z m40 -10 c10 -17 -13 -36 -27 -22 -12 12 -4 33 11 33 5 0 12 -5 16
-11z"/>
<path d="M190 280 c0 -6 33 -10 79 -10 44 0 83 5 86 10 4 6 -25 10 -79 10 -51
0 -86 -4 -86 -10z"/>
<path d="M190 240 c0 -5 21 -10 46 -10 27 0 43 4 39 10 -3 6 -24 10 -46 10
-21 0 -39 -4 -39 -10z"/>
<path d="M101 161 c-13 -24 8 -55 34 -50 28 6 42 34 26 53 -18 22 -48 20 -60
-3z m49 -16 c0 -8 -6 -15 -14 -15 -17 0 -28 14 -19 24 12 12 33 6 33 -9z"/>
<path d="M190 170 c0 -6 29 -10 66 -10 41 0 63 4 59 10 -3 6 -33 10 -66 10
-33 0 -59 -4 -59 -10z"/>
<path d="M190 120 c0 -6 33 -10 79 -10 44 0 83 5 86 10 4 6 -25 10 -79 10 -51
0 -86 -4 -86 -10z"/>
</g>
</svg>
