<?xml version="1.0" standalone="no"?>
<!DOCTYPE svg PUBLIC "-//W3C//DTD SVG 20010904//EN"
 "http://www.w3.org/TR/2001/REC-SVG-20010904/DTD/svg10.dtd">
<svg version="1.0" xmlns="http://www.w3.org/2000/svg"
 width="64.000000pt" height="64.000000pt" viewBox="0 0 64.000000 64.000000"
 preserveAspectRatio="xMidYMid meet">

<g transform="translate(0.000000,64.000000) scale(0.100000,-0.100000)"
fill="#000000" stroke="none">
<path d="M234 621 c-39 -18 -65 -41 -47 -41 5 0 26 9 48 20 123 63 275 -29
275 -166 0 -29 -5 -65 -11 -81 -24 -63 -109 -122 -177 -123 -65 0 -146 50
-178 112 -21 41 -18 136 6 176 22 35 26 57 10 47 -23 -14 -50 -86 -50 -135 0
-125 88 -214 210 -214 122 0 210 89 210 214 0 151 -159 253 -296 191z"/>
<path d="M255 554 c-35 -38 -34 -87 4 -125 20 -20 39 -29 61 -29 44 0 90 47
90 93 0 80 -101 119 -155 61z m119 -16 c36 -51 5 -118 -54 -118 -59 0 -90 67
-54 118 11 16 25 22 54 22 29 0 43 -6 54 -22z"/>
<path d="M186 364 c-9 -8 -16 -20 -16 -25 0 -17 49 -59 85 -75 65 -27 139 -11
190 40 29 29 31 39 9 60 -23 23 -245 23 -268 0z m260 -16 c4 -6 -6 -23 -24
-39 -56 -50 -148 -50 -204 0 -48 43 -33 51 102 51 80 0 121 -4 126 -12z"/>
<path d="M66 165 c-9 -14 -25 -25 -37 -25 -26 0 -35 -26 -16 -48 8 -9 17 -33
19 -52 3 -31 6 -35 28 -32 14 1 32 3 40 3 8 0 26 -2 40 -3 22 -3 25 1 28 32 2
19 11 43 19 52 19 22 10 48 -16 48 -12 0 -28 11 -37 25 -9 14 -24 25 -34 25
-10 0 -25 -11 -34 -25z m53 -14 c6 -10 22 -22 36 -25 29 -7 32 -18 10 -36 -8
-7 -15 -26 -15 -42 0 -25 -3 -29 -17 -23 -23 10 -43 10 -65 0 -15 -6 -18 -2
-18 23 0 16 -7 35 -15 42 -22 18 -19 29 10 36 14 3 30 15 36 25 5 11 14 19 19
19 5 0 14 -8 19 -19z"/>
<path d="M286 165 c-9 -14 -25 -25 -37 -25 -26 0 -35 -26 -16 -48 8 -9 17 -33
19 -52 3 -31 6 -35 28 -32 14 1 32 3 40 3 8 0 26 -2 40 -3 22 -3 25 1 28 32 2
19 11 43 19 52 19 22 10 48 -16 48 -12 0 -28 11 -37 25 -9 14 -24 25 -34 25
-10 0 -25 -11 -34 -25z m53 -14 c6 -10 22 -22 36 -25 29 -7 32 -18 10 -36 -8
-7 -15 -26 -15 -42 0 -25 -3 -29 -17 -23 -23 10 -43 10 -65 0 -15 -6 -18 -2
-18 23 0 16 -7 35 -15 42 -22 18 -19 29 10 36 14 3 30 15 36 25 5 11 14 19 19
19 5 0 14 -8 19 -19z"/>
<path d="M506 165 c-9 -14 -25 -25 -37 -25 -26 0 -35 -26 -16 -48 8 -9 17 -33
19 -52 3 -31 6 -35 28 -32 14 1 32 3 40 3 8 0 26 -2 40 -3 22 -3 25 1 28 32 2
19 11 43 19 52 19 22 10 48 -16 48 -12 0 -28 11 -37 25 -9 14 -24 25 -34 25
-10 0 -25 -11 -34 -25z m53 -14 c6 -10 22 -22 36 -25 29 -7 32 -18 10 -36 -8
-7 -15 -26 -15 -42 0 -25 -3 -29 -17 -23 -23 10 -43 10 -65 0 -15 -6 -18 -2
-18 23 0 16 -7 35 -15 42 -22 18 -19 29 10 36 14 3 30 15 36 25 5 11 14 19 19
19 5 0 14 -8 19 -19z"/>
</g>
</svg>
