<?xml version="1.0" standalone="no"?>
<!DOCTYPE svg PUBLIC "-//W3C//DTD SVG 20010904//EN"
 "http://www.w3.org/TR/2001/REC-SVG-20010904/DTD/svg10.dtd">
<svg version="1.0" xmlns="http://www.w3.org/2000/svg"
 width="128.000000pt" height="128.000000pt" viewBox="0 0 128.000000 128.000000"
 preserveAspectRatio="xMidYMid meet">

<g transform="translate(0.000000,128.000000) scale(0.100000,-0.100000)"
fill="#000000" stroke="none">
<path d="M1040 1249 c-14 -5 -83 -68 -155 -139 l-130 -129 -45 11 c-25 6 -58
23 -75 39 -36 33 -74 49 -121 49 -26 0 -43 9 -73 39 -122 122 -320 49 -338
-124 -5 -50 -11 -62 -42 -90 -32 -30 -36 -39 -36 -84 0 -44 4 -55 33 -83 31
-32 35 -33 127 -36 l95 -4 0 -52 c0 -29 5 -68 11 -85 12 -33 11 -34 -79 -124
-91 -92 -91 -92 -141 -222 -28 -72 -51 -137 -51 -146 0 -19 31 -49 51 -49 8 0
72 23 144 51 121 47 135 55 196 115 64 64 67 65 73 41 3 -14 3 -38 0 -54 -5
-24 0 -36 30 -68 20 -21 36 -41 36 -45 0 -4 16 -15 36 -25 59 -28 100 -15 162
50 28 31 52 61 52 67 0 7 4 7 13 -1 11 -8 18 -6 32 9 33 37 75 19 75 -32 0
-28 1 -28 60 -28 59 0 60 0 60 28 0 51 42 69 75 32 19 -21 19 -20 62 22 l43
42 -20 21 c-35 38 -19 75 32 75 28 0 28 1 28 60 0 59 0 60 -28 60 -51 0 -69
42 -32 75 21 19 20 19 -22 62 l-42 43 -21 -20 c-38 -35 -75 -19 -75 32 0 20
-5 28 -18 28 -14 0 -21 12 -30 48 l-11 47 134 135 c110 111 134 142 140 173
24 127 -97 232 -215 186z m141 -65 c48 -46 50 -113 4 -169 l-24 -30 -88 87
c-77 77 -86 89 -73 102 53 53 132 57 181 10z m-794 -71 c48 -35 50 -47 15 -87
-18 -20 -32 -43 -32 -51 0 -8 -16 -30 -35 -49 -19 -20 -35 -42 -35 -51 0 -22
33 -19 48 5 7 11 21 20 32 20 11 0 25 -9 32 -20 15 -24 48 -27 48 -4 0 9 -13
28 -29 43 -32 30 -29 51 14 91 21 20 37 25 76 25 41 0 53 -5 80 -31 37 -38 52
-109 25 -120 -17 -6 -46 -53 -46 -74 0 -5 9 -10 20 -10 11 0 20 5 20 10 0 17
39 50 60 50 26 0 60 -34 60 -60 0 -11 -9 -29 -20 -40 -19 -19 -33 -20 -315
-20 l-296 0 -24 25 c-50 49 -15 135 55 135 33 0 80 -38 80 -65 0 -9 9 -15 21
-15 49 0 -15 103 -72 115 -25 6 -29 11 -29 40 0 66 37 124 95 151 40 19 119
12 152 -13z m663 -68 c80 -81 84 -86 67 -102 -16 -17 -22 -13 -104 69 -74 75
-85 89 -74 102 8 9 16 16 20 16 4 0 44 -38 91 -85z m-110 -10 l34 -35 -45 -46
-46 -46 -42 27 c-22 15 -41 30 -41 33 0 8 93 102 100 102 3 0 21 -16 40 -35z
m100 -100 l34 -35 -49 -50 c-27 -28 -52 -50 -56 -50 -3 0 -19 19 -34 41 l-27
41 43 44 c24 24 46 44 49 44 3 0 21 -16 40 -35z m-253 -14 c57 -29 107 -81
140 -144 22 -43 27 -65 27 -132 1 -98 -8 -116 -108 -223 -41 -44 -79 -89 -85
-101 -9 -17 -21 -21 -56 -21 l-45 0 0 58 c0 73 -14 94 -71 101 -30 4 -44 11
-44 21 0 12 23 16 123 20 107 4 126 8 138 24 18 25 18 47 0 72 -12 16 -30 20
-118 24 l-103 5 -3 38 -3 37 61 0 c33 0 73 6 89 14 72 38 64 149 -14 177 -28
11 -35 18 -35 40 0 25 2 26 33 20 17 -5 51 -18 74 -30z m-247 -259 c0 -67 14
-76 132 -82 83 -4 103 -8 103 -20 0 -12 -23 -16 -123 -20 -107 -4 -126 -8
-138 -24 -32 -44 -7 -87 57 -95 l44 -6 3 -57 3 -58 -45 0 c-36 0 -48 4 -57 21
-6 12 -44 57 -85 101 -87 93 -104 122 -111 193 -9 85 -9 85 112 85 l105 0 0
-38z m484 -97 c27 -27 74 -33 94 -13 8 8 15 8 26 -1 11 -9 12 -18 3 -41 -16
-41 0 -81 40 -100 33 -15 45 -50 18 -50 -45 0 -84 -87 -53 -118 10 -10 8 -16
-5 -29 -13 -13 -20 -14 -29 -5 -31 31 -118 -8 -118 -53 0 -27 -35 -15 -50 18
-19 40 -59 56 -100 40 -34 -13 -44 -5 -55 44 -5 25 -1 40 19 69 l25 37 14 -35
c26 -63 87 -96 152 -84 79 15 130 98 106 175 -13 45 -60 89 -103 98 -24 5 -29
10 -24 27 3 12 6 27 6 34 0 17 6 15 34 -13z m-674 -107 c16 -18 30 -38 30 -43
0 -6 -32 -42 -70 -80 l-70 -70 -37 38 -38 37 75 75 c41 41 76 75 77 75 2 0 17
-15 33 -32z m679 8 c67 -35 65 -143 -4 -174 -51 -23 -107 -7 -131 39 -22 44
-17 70 23 111 40 41 67 47 112 24z m-574 -122 l28 -36 -72 -71 -71 -72 -37 38
-38 37 70 70 c38 38 75 70 81 70 6 0 24 -16 39 -36z m-225 -119 c41 -41 72
-76 69 -78 -2 -3 -32 -15 -67 -27 l-63 -23 -36 35 -36 36 23 66 c13 36 26 66
30 66 3 0 39 -34 80 -75z m525 15 c0 -12 -20 -16 -109 -18 -106 -3 -136 4
-121 27 4 8 44 11 118 9 92 -2 112 -6 112 -18z m0 -80 c0 -12 -20 -16 -109
-18 -106 -3 -136 4 -121 27 4 8 44 11 118 9 92 -2 112 -6 112 -18z m-632 -81
c-5 -4 -20 -11 -35 -14 -31 -8 -34 -1 -18 41 l11 27 24 -23 c14 -13 22 -27 18
-31z m568 1 c-30 -25 -72 -25 -102 0 l-24 19 75 0 75 0 -24 -19z"/>
<path d="M940 420 c-11 -11 -20 -29 -20 -40 0 -26 34 -60 60 -60 26 0 60 34
60 60 0 11 -9 29 -20 40 -11 11 -29 20 -40 20 -11 0 -29 -9 -40 -20z m56 -31
c10 -17 -13 -36 -27 -22 -12 12 -4 33 11 33 5 0 12 -5 16 -11z"/>
</g>
</svg>
