<?xml version="1.0" standalone="no"?>
<!DOCTYPE svg PUBLIC "-//W3C//DTD SVG 20010904//EN"
 "http://www.w3.org/TR/2001/REC-SVG-20010904/DTD/svg10.dtd">
<svg version="1.0" xmlns="http://www.w3.org/2000/svg"
 width="128.000000pt" height="128.000000pt" viewBox="0 0 128.000000 128.000000"
 preserveAspectRatio="xMidYMid meet">

<g transform="translate(0.000000,128.000000) scale(0.100000,-0.100000)"
fill="#000000" stroke="none">
<path d="M112 1268 c-19 -19 -17 -741 2 -757 9 -8 65 -11 177 -9 138 3 164 5
164 18 0 9 -11 16 -27 18 -24 3 -28 8 -28 37 0 29 4 34 28 37 16 2 27 9 27 18
0 13 -25 15 -157 18 l-158 3 0 239 0 240 240 0 239 0 3 -157 c3 -133 5 -158
18 -158 13 0 15 25 18 158 l3 157 239 0 240 0 0 -240 0 -239 -157 -3 c-133 -3
-158 -5 -158 -18 0 -9 11 -16 28 -18 23 -3 27 -8 27 -37 0 -29 -4 -34 -27 -37
-17 -2 -28 -9 -28 -18 0 -13 26 -15 164 -18 112 -2 168 1 177 9 19 16 21 738
2 757 -17 17 -1039 17 -1056 0z m118 -63 c0 -35 0 -35 -45 -35 -45 0 -45 0
-45 35 0 35 0 35 45 35 45 0 45 0 45 -35z m130 0 c0 -35 0 -35 -45 -35 -45 0
-45 0 -45 35 0 35 0 35 45 35 45 0 45 0 45 -35z m130 0 c0 -35 0 -35 -45 -35
-45 0 -45 0 -45 35 0 35 0 35 45 35 45 0 45 0 45 -35z m130 0 c0 -35 0 -35
-45 -35 -45 0 -45 0 -45 35 0 35 0 35 45 35 45 0 45 0 45 -35z m130 0 c0 -35
0 -35 -45 -35 -45 0 -45 0 -45 35 0 35 0 35 45 35 45 0 45 0 45 -35z m130 0
c0 -35 0 -35 -45 -35 -45 0 -45 0 -45 35 0 35 0 35 45 35 45 0 45 0 45 -35z
m130 0 c0 -35 0 -35 -45 -35 -45 0 -45 0 -45 35 0 35 0 35 45 35 45 0 45 0 45
-35z m130 0 c0 -35 0 -35 -45 -35 -45 0 -45 0 -45 35 0 35 0 35 45 35 45 0 45
0 45 -35z m-910 -630 c0 -35 0 -35 -45 -35 -45 0 -45 0 -45 35 0 35 0 35 45
35 45 0 45 0 45 -35z m130 0 c0 -35 0 -35 -45 -35 -45 0 -45 0 -45 35 0 35 0
35 45 35 45 0 45 0 45 -35z m650 0 c0 -35 0 -35 -45 -35 -45 0 -45 0 -45 35 0
35 0 35 45 35 45 0 45 0 45 -35z m130 0 c0 -35 0 -35 -45 -35 -45 0 -45 0 -45
35 0 35 0 35 45 35 45 0 45 0 45 -35z"/>
<path d="M336 1058 c-9 -12 -16 -40 -16 -62 0 -35 16 -65 109 -206 135 -203
135 -204 54 -325 l-54 -83 -49 0 c-61 0 -115 -26 -154 -75 -26 -32 -31 -48
-34 -105 -3 -59 0 -72 23 -107 35 -53 80 -83 137 -91 148 -20 265 139 199 270
l-20 38 52 79 c29 43 54 79 57 79 3 0 28 -36 57 -79 l52 -79 -20 -38 c-66
-131 51 -290 199 -270 57 8 102 38 137 91 23 35 26 48 23 107 -3 57 -8 73 -34
105 -39 49 -93 75 -154 75 l-49 0 -54 83 c-81 121 -81 122 54 325 93 141 109
171 109 206 0 45 -23 84 -49 84 -12 0 -58 -59 -141 -185 -68 -102 -126 -185
-130 -185 -4 0 -62 83 -130 185 -128 192 -144 207 -174 163z m164 -216 c106
-158 130 -188 156 -194 35 -9 57 -47 48 -82 -4 -18 11 -48 62 -126 l68 -101
45 6 c136 18 230 -143 144 -246 -51 -60 -126 -76 -193 -40 -77 40 -103 134
-59 215 l21 39 -69 101 c-54 80 -74 102 -99 108 -35 9 -57 47 -48 82 4 19 -20
62 -111 199 -97 146 -116 180 -111 201 3 15 10 26 14 26 4 0 63 -85 132 -188z
m426 162 c5 -21 -12 -53 -100 -185 -99 -148 -108 -158 -126 -147 -11 7 -19 16
-18 19 9 21 224 339 230 339 4 0 11 -11 14 -26z m-326 -519 c0 -3 -25 -43 -56
-89 l-55 -84 20 -38 c91 -170 -128 -322 -252 -175 -86 103 8 264 144 246 l45
-6 57 86 c51 76 60 84 77 75 11 -6 20 -13 20 -15z"/>
<path d="M625 591 c-7 -12 12 -24 25 -16 11 7 4 25 -10 25 -5 0 -11 -4 -15 -9z"/>
<path d="M856 285 c-42 -22 -55 -44 -56 -92 0 -81 93 -133 159 -87 45 32 64
124 25 124 -9 0 -14 -10 -14 -28 0 -43 -26 -72 -63 -72 -38 0 -50 7 -65 37
-23 42 14 93 65 93 27 0 34 4 31 18 -4 23 -45 26 -82 7z"/>
<path d="M332 285 c-67 -29 -76 -127 -15 -175 64 -50 163 -2 163 81 0 28 -4
39 -15 39 -8 0 -15 -9 -15 -21 0 -23 -18 -60 -34 -71 -6 -4 -25 -8 -43 -8 -35
0 -63 29 -63 65 0 29 40 65 73 65 30 0 46 18 26 31 -19 12 -39 11 -77 -6z"/>
</g>
</svg>
