<?xml version="1.0" standalone="no"?>
<!DOCTYPE svg PUBLIC "-//W3C//DTD SVG 20010904//EN"
 "http://www.w3.org/TR/2001/REC-SVG-20010904/DTD/svg10.dtd">
<svg version="1.0" xmlns="http://www.w3.org/2000/svg"
 width="128.000000pt" height="128.000000pt" viewBox="0 0 128.000000 128.000000"
 preserveAspectRatio="xMidYMid meet">

<g transform="translate(0.000000,128.000000) scale(0.100000,-0.100000)"
fill="#000000" stroke="none">
<path d="M0 733 c0 -530 1 -549 21 -593 27 -60 54 -88 114 -116 l50 -24 548 0
547 0 0 548 0 547 -24 50 c-28 60 -56 87 -116 114 -44 20 -63 21 -592 21
l-548 0 0 -547z m1135 464 c22 -13 49 -40 62 -62 l23 -40 0 -517 0 -518 -517
0 -518 0 -40 23 c-22 13 -49 40 -62 62 l-23 40 0 518 0 517 518 0 517 0 40
-23z"/>
<path d="M352 643 l3 -218 37 -3 37 -3 3 78 3 78 67 6 c115 10 174 81 148 177
-20 77 -71 102 -206 102 l-94 0 2 -217z m192 136 c20 -16 26 -29 26 -60 0 -56
-26 -79 -90 -79 l-50 0 0 80 0 80 44 0 c29 0 52 -7 70 -21z"/>
<path d="M763 735 c-82 -35 -68 -141 25 -178 21 -8 44 -22 51 -31 32 -38 -44
-62 -101 -32 -28 15 -28 15 -28 -20 0 -41 24 -54 97 -54 74 0 123 42 123 106
0 32 -38 69 -94 93 -52 23 -62 36 -45 57 13 16 65 16 102 0 14 -7 17 -3 17 23
0 25 -6 34 -26 41 -35 14 -83 12 -121 -5z"/>
</g>
</svg>
