<?xml version="1.0" standalone="no"?>
<!DOCTYPE svg PUBLIC "-//W3C//DTD SVG 20010904//EN"
 "http://www.w3.org/TR/2001/REC-SVG-20010904/DTD/svg10.dtd">
<svg version="1.0" xmlns="http://www.w3.org/2000/svg"
 width="128.000000pt" height="128.000000pt" viewBox="0 0 128.000000 128.000000"
 preserveAspectRatio="xMidYMid meet">

<g transform="translate(0.000000,128.000000) scale(0.100000,-0.100000)"
fill="#000000" stroke="none">
<path d="M141 1254 c-122 -61 -172 -212 -111 -335 17 -33 75 -92 114 -114 15
-9 16 -17 4 -83 -9 -57 -10 -89 0 -155 7 -45 9 -83 4 -85 -62 -21 -126 -100
-143 -177 -15 -68 4 -157 35 -163 16 -3 18 0 12 25 -21 86 -19 122 9 178 66
136 229 162 335 55 107 -106 81 -269 -55 -335 -78 -39 -143 -31 -232 25 -12 8
-26 11 -30 7 -13 -14 12 -42 63 -67 102 -52 232 -23 300 67 18 23 34 47 36 53
3 9 23 9 80 -1 62 -10 93 -10 155 0 71 11 79 10 88 -5 23 -40 82 -97 119 -117
29 -15 60 -21 106 -21 173 0 288 158 238 328 -12 40 -77 115 -126 147 -20 13
-21 17 -11 54 11 39 8 215 -4 245 -4 10 9 24 41 45 137 88 150 285 26 394 -77
68 -182 81 -275 34 -47 -25 -109 -87 -120 -122 -3 -8 -15 -8 -39 -1 -45 13
-185 13 -230 0 -31 -9 -37 -8 -49 12 -32 49 -107 114 -147 126 -68 20 -134 15
-193 -14z m207 -33 c109 -56 149 -191 88 -295 -24 -41 -25 -47 -10 -53 35 -13
74 74 74 165 l0 50 70 12 c63 11 100 9 183 -6 24 -5 27 -10 27 -48 0 -69 26
-140 68 -183 50 -51 101 -74 178 -81 l63 -5 11 -66 c8 -48 8 -85 1 -131 -6
-36 -11 -68 -11 -72 0 -5 -26 -8 -59 -8 -138 0 -237 -95 -249 -237 l-5 -63
-41 -11 c-41 -11 -185 -7 -218 6 -14 6 -18 19 -18 64 -1 135 -106 240 -242
241 l-57 0 -12 43 c-11 41 -8 196 5 227 5 11 17 14 46 12 55 -6 140 24 140 49
0 23 1 23 -43 4 -140 -58 -297 48 -297 203 0 69 60 159 125 188 45 20 139 18
183 -5z m781 -1 c79 -40 116 -112 109 -210 -13 -182 -243 -256 -365 -117 -89
102 -62 261 56 324 57 30 145 31 200 3z m-5 -776 c76 -39 116 -104 116 -188 0
-67 -9 -93 -52 -141 -130 -149 -367 -58 -368 141 0 153 167 256 304 188z"/>
<path d="M273 1140 c-12 -5 -28 -18 -35 -30 -16 -26 -36 -25 -64 1 -41 38 -62
10 -55 -70 1 -13 9 -34 18 -47 14 -23 14 -24 -11 -34 -34 -13 -33 -25 5 -40
71 -30 158 -8 200 50 11 14 25 48 33 75 8 28 17 60 21 73 7 20 4 22 -26 20
-19 -1 -41 1 -49 5 -8 3 -25 2 -37 -3z m51 -52 c8 -13 7 -28 -4 -59 -16 -46
-48 -74 -95 -85 -27 -7 -29 -6 -17 9 12 14 9 21 -22 50 -38 37 -50 75 -18 61
9 -4 33 -9 52 -11 32 -4 36 -2 47 27 13 35 38 38 57 8z"/>
<path d="M759 820 c-23 -34 -125 -69 -200 -70 -83 0 -91 -8 -87 -91 2 -50 7
-64 23 -73 31 -17 35 -27 35 -89 0 -50 2 -58 18 -55 14 3 17 14 14 72 l-3 69
56 -6 c30 -3 57 -2 59 2 8 12 -8 28 -36 35 -25 6 -28 11 -28 50 l0 43 63 23
c34 13 68 25 75 27 9 4 12 -18 12 -92 0 -90 -1 -96 -19 -90 -34 11 -35 -16 -1
-47 56 -51 61 -39 58 143 -3 166 -10 192 -39 149z m-181 -152 l3 -48 -35 0
-36 0 0 51 0 50 33 -3 c31 -3 32 -5 35 -50z"/>
<path d="M1028 1160 c-20 -15 -28 -31 -30 -63 -2 -35 -7 -43 -25 -45 -13 -2
-23 -10 -23 -17 0 -7 10 -15 23 -17 20 -3 22 -9 25 -65 2 -46 7 -63 17 -63 10
0 15 17 17 63 3 56 5 62 26 65 28 4 29 32 2 32 -48 0 -34 81 15 90 18 3 30 11
30 20 0 23 -48 24 -77 0z"/>
<path d="M922 374 c-20 -14 -22 -23 -22 -119 0 -134 1 -135 126 -135 136 0
134 -2 134 130 0 136 -4 140 -130 140 -61 0 -92 -4 -108 -16z m203 -119 l0
-90 -92 -3 -93 -3 0 96 0 96 93 -3 92 -3 0 -90z"/>
<path d="M996 297 c-21 -16 -24 -60 -6 -82 19 -23 66 -19 84 7 21 30 20 44 -4
68 -23 23 -49 26 -74 7z m54 -41 c0 -8 -4 -17 -8 -20 -13 -8 -35 11 -28 23 10
16 36 14 36 -3z"/>
<path d="M186 334 c-8 -20 -8 -122 0 -151 9 -32 29 -29 104 15 88 51 89 66 4
115 -73 40 -99 46 -108 21z m118 -75 c7 -6 -61 -49 -79 -49 -3 0 -5 23 -5 51
l0 51 38 -23 c20 -12 41 -26 46 -30z"/>
</g>
</svg>
