<?xml version="1.0" standalone="no"?>
<!DOCTYPE svg PUBLIC "-//W3C//DTD SVG 20010904//EN"
 "http://www.w3.org/TR/2001/REC-SVG-20010904/DTD/svg10.dtd">
<svg version="1.0" xmlns="http://www.w3.org/2000/svg"
 width="128.000000pt" height="128.000000pt" viewBox="0 0 128.000000 128.000000"
 preserveAspectRatio="xMidYMid meet">

<g transform="translate(0.000000,128.000000) scale(0.100000,-0.100000)"
fill="#000000" stroke="none">
<path d="M960 1267 c-14 -7 -47 -45 -74 -85 l-50 -72 -353 0 c-224 0 -361 -4
-374 -10 -46 -25 -49 -47 -49 -410 0 -363 3 -385 49 -410 12 -6 105 -10 231
-10 l212 0 -7 -42 c-14 -81 -20 -88 -70 -88 -52 0 -85 -25 -85 -64 0 -23 -4
-25 -52 -28 -45 -3 -53 -6 -53 -23 0 -20 7 -20 355 -20 348 0 355 0 355 20 0
17 -8 20 -52 23 -49 3 -53 5 -53 28 0 39 -33 64 -85 64 -50 0 -56 7 -70 88
l-7 42 212 0 c126 0 219 4 231 10 46 25 49 47 49 410 0 285 -2 346 -15 370
-17 33 -43 50 -74 50 -19 0 -21 4 -15 38 14 91 -76 159 -156 119z m90 -57 c11
-11 20 -29 20 -39 0 -11 -41 -69 -91 -130 -96 -118 -100 -120 -143 -72 -19 21
-18 22 54 131 40 61 80 115 89 120 25 15 49 12 71 -10z m-256 -162 c-4 -7 -29
-45 -55 -84 -39 -59 -54 -73 -81 -78 -107 -20 -159 -120 -129 -250 13 -55 25
-64 60 -43 18 11 50 17 85 17 108 0 156 37 165 129 6 57 9 63 114 190 l108
131 44 0 c34 0 47 -5 55 -19 6 -12 10 -115 10 -265 l0 -246 -405 0 c-391 0
-405 -1 -405 -19 0 -10 7 -22 16 -25 9 -3 191 -6 405 -6 l389 0 0 -61 c0 -109
53 -99 -530 -99 -583 0 -530 -10 -530 99 l0 61 39 0 c39 0 68 20 56 40 -3 5
-26 10 -51 10 l-44 0 0 246 c0 150 4 253 10 265 10 18 25 19 346 19 265 0 334
-3 328 -12z m39 -142 c14 -11 16 -19 8 -34 -18 -33 -38 -45 -58 -33 -47 27
-47 27 -24 65 24 38 29 38 74 2z m-90 -101 c40 -30 47 -40 47 -69 0 -52 -27
-69 -123 -76 -45 -4 -85 -5 -89 -3 -12 6 -9 76 3 112 12 35 61 71 94 71 11 0
41 -16 68 -35z m-56 -590 c19 -76 20 -75 -47 -75 -66 0 -66 1 -49 65 17 67 17
66 51 63 29 -3 33 -7 45 -53z m153 -145 c0 -19 -7 -20 -200 -20 -193 0 -200 1
-200 20 0 19 7 20 200 20 193 0 200 -1 200 -20z"/>
<path d="M260 511 c0 -24 25 -34 40 -16 15 18 5 35 -21 35 -12 0 -19 -7 -19
-19z"/>
</g>
</svg>
