<?xml version="1.0" standalone="no"?>
<!DOCTYPE svg PUBLIC "-//W3C//DTD SVG 20010904//EN"
 "http://www.w3.org/TR/2001/REC-SVG-20010904/DTD/svg10.dtd">
<svg version="1.0" xmlns="http://www.w3.org/2000/svg"
 width="128.000000pt" height="128.000000pt" viewBox="0 0 128.000000 128.000000"
 preserveAspectRatio="xMidYMid meet">

<g transform="translate(0.000000,128.000000) scale(0.100000,-0.100000)"
fill="#000000" stroke="none">
<path d="M68 1183 c-14 -9 -36 -33 -47 -54 -20 -36 -21 -49 -21 -488 0 -425 1
-454 19 -489 39 -75 14 -72 621 -72 607 0 582 -3 621 72 18 35 19 64 19 489 0
440 -1 452 -21 489 -41 73 -14 70 -621 70 -488 -1 -546 -2 -570 -17z m1116
-34 c39 -18 56 -66 56 -158 l0 -81 -600 0 -600 0 0 81 c0 90 17 140 53 157 32
15 1057 16 1091 1z m54 -612 c3 -358 -1 -381 -54 -406 -35 -16 -1053 -16
-1088 0 -53 24 -56 49 -56 401 0 179 3 328 7 331 3 4 272 6 597 5 l591 -3 3
-328z"/>
<path d="M110 1080 c-40 -40 -11 -110 45 -110 56 0 85 70 45 110 -11 11 -31
20 -45 20 -14 0 -34 -9 -45 -20z m68 -43 c4 -20 -25 -34 -39 -20 -14 14 1 45
20 41 9 -2 17 -11 19 -21z"/>
<path d="M316 1081 c-38 -42 -10 -111 45 -111 54 0 83 56 52 99 -26 34 -72 40
-97 12z m61 -37 c8 -21 -13 -42 -28 -27 -13 13 -5 43 11 43 6 0 13 -7 17 -16z"/>
<path d="M522 1077 c-12 -13 -22 -33 -22 -45 0 -31 35 -62 68 -62 57 0 83 69
42 110 -27 27 -62 25 -88 -3z m68 -43 c0 -20 -30 -30 -40 -13 -11 17 7 40 26
32 8 -3 14 -12 14 -19z"/>
<path d="M656 723 c-18 -63 -85 -406 -80 -414 16 -27 34 -4 48 64 50 228 74
352 70 359 -9 14 -33 8 -38 -9z"/>
<path d="M428 599 c-40 -33 -73 -68 -73 -77 0 -8 33 -44 73 -79 63 -55 76 -62
89 -51 14 11 8 20 -48 71 l-64 57 64 58 c54 50 61 59 48 70 -13 11 -27 3 -89
-49z"/>
<path d="M761 648 c-10 -11 0 -24 51 -70 l63 -58 -64 -57 c-56 -51 -62 -60
-48 -71 13 -11 26 -4 89 51 40 35 73 71 73 79 0 12 -136 138 -148 138 -2 0 -9
-6 -16 -12z"/>
</g>
</svg>
